<?xml version="1.0" encoding="UTF-8" standalone="no"?>
<!DOCTYPE svg PUBLIC "-//W3C//DTD SVG 1.1//EN" "http://www.w3.org/Graphics/SVG/1.1/DTD/svg11.dtd">
<svg width="100%" height="100%" viewBox="0 0 1095 1075" version="1.1" xmlns="http://www.w3.org/2000/svg" xmlns:xlink="http://www.w3.org/1999/xlink" xml:space="preserve" xmlns:serif="http://www.serif.com/" style="fill-rule:evenodd;clip-rule:evenodd;stroke-linejoin:round;stroke-miterlimit:2;">
    <g transform="matrix(1,0,0,1,-52.897043,-62.574462)">
        <g transform="matrix(4.166667,0,0,4.166667,0,0)">
            <g transform="matrix(2.55129,0,0,2.506162,144,61.341768)">
                <path d="M0,65.964C-18.218,65.964 -32.982,51.196 -32.982,32.982C-32.982,31.295 -32.854,29.638 -32.61,28.019C-32.492,28.373 -32.377,28.727 -32.248,29.073C-32.017,29.654 -31.785,30.238 -31.552,30.823C-31.3,31.34 -31.048,31.859 -30.794,32.379C-30.248,33.397 -29.678,34.414 -29.005,35.368C-27.695,37.296 -26.15,39.081 -24.417,40.663C-20.936,43.812 -16.725,46.141 -12.201,47.403C-7.687,48.663 -2.8,48.852 1.801,47.626C6.4,46.439 10.588,43.683 13.34,40.16C13.71,39.739 14.015,39.279 14.329,38.828L14.794,38.153L14.933,37.944L15.059,37.722L15.226,37.427L15.559,36.839L15.726,36.546L15.92,36.157C16.17,35.639 16.44,35.113 16.651,34.606C17.487,32.644 18,30.539 18.152,28.449C18.479,24.246 17.169,20.196 14.978,17.292C12.801,14.354 9.83,12.473 6.932,11.698C4.023,10.888 1.244,11.236 -0.743,11.996C-2.762,12.748 -4.065,13.776 -4.895,14.475C-5.693,15.213 -6.085,15.629 -6.085,15.629C-6.852,16.439 -6.92,17.712 -6.198,18.603C-5.412,19.573 -3.989,19.722 -3.02,18.936L-2.869,18.815C-2.869,18.815 -2.555,18.56 -1.966,18.082C-1.357,17.657 -0.435,17.071 0.813,16.735C2.048,16.39 3.633,16.339 5.305,16.97C6.967,17.577 8.704,18.892 9.872,20.817C11.05,22.729 11.598,25.19 11.174,27.707C10.963,28.966 10.543,30.245 9.873,31.487C9.717,31.783 9.546,32.032 9.393,32.312L9.276,32.518L9.085,32.796L8.703,33.353L8.367,33.843C8.522,33.602 8.397,33.791 8.426,33.744L8.404,33.77L8.056,34.189C7.824,34.469 7.606,34.762 7.34,35.006C5.37,37.128 2.742,38.536 -0.195,39.054C-3.126,39.584 -6.337,39.222 -9.288,38.127C-12.246,37.037 -14.938,35.232 -17.012,33.018C-18.044,31.905 -18.922,30.693 -19.636,29.427C-20.011,28.804 -20.299,28.142 -20.587,27.493L-20.974,26.504L-21.231,25.656C-22.093,22.65 -22.21,19.915 -21.881,17.427C-21.541,14.95 -20.697,12.773 -19.585,10.902C-17.341,7.149 -14.173,4.667 -11.86,3.175C-10.327,2.186 -8.775,1.408 -7.021,0.881C-6.259,0.652 -5.426,0.402 -4.637,0.304C-3.313,0.141 -1.974,0.006 -0.638,0.006C-0.426,0.002 -0.213,-0.001 0,-0.001C18.217,-0.001 32.982,14.767 32.982,32.982C32.982,51.196 18.217,65.964 0,65.964M0,-18.484C-28.427,-18.484 -51.466,4.559 -51.466,32.982C-51.466,61.404 -28.427,84.448 0,84.448C28.427,84.448 51.466,61.404 51.466,32.982C51.466,4.559 28.427,-18.484 0,-18.484" style="fill:rgb(219,233,0);fill-rule:nonzero;"/>
            </g>
        </g>
    </g>
</svg>
